<?xml version="1.0" encoding="UTF-8" standalone="no"?>
<svg
   version="1.1"
   width="256"
   height="256"
   viewBox="0 0 256 256"
   xml:space="preserve"
   id="svg4290"
   xmlns="http://www.w3.org/2000/svg"
   xmlns:svg="http://www.w3.org/2000/svg">

<defs
   id="defs4282">
</defs>
<g
   style="stroke: none; stroke-width: 0; stroke-dasharray: none; stroke-linecap: butt; stroke-linejoin: miter; stroke-miterlimit: 10; fill: none; fill-rule: nonzero; opacity: 1;"
   transform="translate(1.4065934065934016 1.4065934065934016) scale(2.81 2.81)"
   id="g4288">
	<path
   d="M 41.513 61.694 L 27.244 75.963 V 5.588 c 0 -1.933 -1.567 -3.5 -3.5 -3.5 s -3.5 1.567 -3.5 3.5 v 70.375 L 5.975 61.694 c -1.366 -1.367 -3.583 -1.367 -4.95 0 c -1.367 1.366 -1.367 3.583 0 4.949 l 20.241 20.241 c 0.163 0.164 0.343 0.31 0.536 0.439 c 0.085 0.057 0.176 0.095 0.264 0.143 c 0.112 0.061 0.219 0.129 0.338 0.178 c 0.114 0.047 0.234 0.074 0.351 0.109 c 0.101 0.03 0.197 0.069 0.302 0.089 c 0.226 0.045 0.456 0.069 0.685 0.069 s 0.459 -0.024 0.685 -0.069 c 0.104 -0.021 0.201 -0.06 0.302 -0.089 c 0.118 -0.035 0.237 -0.062 0.351 -0.109 c 0.119 -0.049 0.226 -0.117 0.338 -0.178 c 0.088 -0.048 0.18 -0.087 0.264 -0.143 c 0.193 -0.129 0.373 -0.275 0.536 -0.439 l 20.241 -20.241 c 1.367 -1.366 1.367 -3.583 0 -4.949 C 45.096 60.328 42.88 60.327 41.513 61.694 z"
   style="stroke:none;stroke-width:1;stroke-dasharray:none;stroke-linecap:butt;stroke-linejoin:miter;stroke-miterlimit:10;fill:#262626;fill-rule:nonzero;opacity:1;fill-opacity:1"
   transform=" matrix(1 0 0 1 0 0) "
   stroke-linecap="round"
   id="path4284" />
	<path
   d="M 88.975 23.356 L 68.73 3.113 c -0.001 -0.001 -0.003 -0.002 -0.004 -0.003 c -0.633 -0.631 -1.506 -1.022 -2.471 -1.022 c -0.967 0 -1.843 0.393 -2.477 1.028 L 43.538 23.357 c -1.367 1.367 -1.367 3.583 0 4.95 c 1.366 1.366 3.582 1.367 4.949 0 l 14.269 -14.269 v 70.374 c 0 1.933 1.567 3.5 3.5 3.5 s 3.5 -1.567 3.5 -3.5 V 14.037 l 14.27 14.269 c 0.684 0.683 1.579 1.025 2.475 1.025 s 1.791 -0.342 2.475 -1.025 C 90.342 26.939 90.342 24.724 88.975 23.356 z"
   style="stroke:none;stroke-width:1;stroke-dasharray:none;stroke-linecap:butt;stroke-linejoin:miter;stroke-miterlimit:10;fill:#272727;fill-rule:nonzero;opacity:1;fill-opacity:1"
   transform=" matrix(1 0 0 1 0 0) "
   stroke-linecap="round"
   id="path4286" />
</g>
</svg>
